<svg width="128" height="128" viewBox="0 0 128 128" xmlns="http://www.w3.org/2000/svg">
  <defs>
    <linearGradient id="grad128" x1="0%" y1="0%" x2="100%" y2="100%">
      <stop offset="0%" style="stop-color:#6366f1;stop-opacity:1" />
      <stop offset="50%" style="stop-color:#8b5cf6;stop-opacity:1" />
      <stop offset="100%" style="stop-color:#a855f7;stop-opacity:1" />
    </linearGradient>
    <linearGradient id="gold128" x1="0%" y1="0%" x2="100%" y2="100%">
      <stop offset="0%" style="stop-color:#fbbf24;stop-opacity:1" />
      <stop offset="100%" style="stop-color:#f59e0b;stop-opacity:1" />
    </linearGradient>
    <radialGradient id="highlight128" cx="50%" cy="30%">
      <stop offset="0%" style="stop-color:#ffffff;stop-opacity:0.3" />
      <stop offset="100%" style="stop-color:#ffffff;stop-opacity:0" />
    </radialGradient>
    <filter id="shadow128" x="-50%" y="-50%" width="200%" height="200%">
      <feDropShadow dx="2" dy="4" stdDeviation="3" flood-color="#000000" flood-opacity="0.3"/>
    </filter>
  </defs>
  
  <circle cx="64" cy="64" r="56" fill="url(#grad128)" filter="url(#shadow128)"/>
  <circle cx="64" cy="64" r="56" fill="url(#highlight128)"/>
  
  <!-- Target -->
  <g transform="translate(64, 45)">
    <circle cx="0" cy="0" r="20" fill="none" stroke="white" stroke-width="4" opacity="0.9"/>
    <circle cx="0" cy="0" r="12" fill="none" stroke="white" stroke-width="3" opacity="0.9"/>
    <circle cx="0" cy="0" r="6" fill="url(#gold128)"/>
    <circle cx="-2" cy="-2" r="3" fill="white" opacity="0.4"/>
  </g>
  
  <!-- Calculator -->
  <g transform="translate(64, 85)">
    <rect x="-16" y="-8" width="32" height="16" rx="3" fill="white" opacity="0.95" filter="url(#shadow128)"/>
    <rect x="-13" y="-5" width="26" height="6" rx="1" fill="#1f2937"/>
    <text x="0" y="1" text-anchor="middle" font-family="Arial, sans-serif" font-size="7" font-weight="bold" fill="url(#gold128)">$</text>
    
    <!-- Calculator buttons -->
    <g fill="#6366f1" opacity="0.8">
      <!-- Top row -->
      <rect x="-10" y="4" width="3" height="2.5" rx="0.3"/>
      <rect x="-5" y="4" width="3" height="2.5" rx="0.3"/>
      <rect x="0" y="4" width="3" height="2.5" rx="0.3"/>
      <rect x="5" y="4" width="3" height="2.5" rx="0.3"/>
      
      <!-- Bottom row -->
      <rect x="-10" y="8" width="3" height="2.5" rx="0.3"/>
      <rect x="-5" y="8" width="3" height="2.5" rx="0.3"/>
      <rect x="0" y="8" width="3" height="2.5" rx="0.3"/>
      <rect x="5" y="8" width="3" height="2.5" rx="0.3"/>
    </g>
  </g>
  
  <!-- Decorative elements -->
  <g opacity="0.6">
    <circle cx="25" cy="35" r="2" fill="white"/>
    <circle cx="20" cy="50" r="1.5" fill="white" opacity="0.7"/>
    <circle cx="30" cy="65" r="2" fill="white" opacity="0.8"/>
    
    <circle cx="103" cy="35" r="2" fill="white"/>
    <circle cx="108" cy="50" r="1.5" fill="white" opacity="0.7"/>
    <circle cx="98" cy="65" r="2" fill="white" opacity="0.8"/>
  </g>
</svg>
