<svg width="128" height="128" viewBox="0 0 128 128" xmlns="http://www.w3.org/2000/svg">
  <defs>
    <linearGradient id="gradient" x1="0%" y1="0%" x2="100%" y2="100%">
      <stop offset="0%" style="stop-color:#6366f1;stop-opacity:1" />
      <stop offset="100%" style="stop-color:#8b5cf6;stop-opacity:1" />
    </linearGradient>
  </defs>
  
  <!-- Background circle -->
  <circle cx="64" cy="64" r="60" fill="url(#gradient)" stroke="#4f46e5" stroke-width="2"/>
  
  <!-- Target symbol (🎯 replacement) -->
  <circle cx="64" cy="64" r="45" fill="none" stroke="white" stroke-width="3"/>
  <circle cx="64" cy="64" r="30" fill="none" stroke="white" stroke-width="2"/>
  <circle cx="64" cy="64" r="15" fill="white"/>
  <circle cx="64" cy="64" r="8" fill="#6366f1"/>
  
  <!-- Calculator symbol -->
  <rect x="45" y="85" width="38" height="25" rx="3" fill="white" opacity="0.9"/>
  <rect x="48" y="88" width="8" height="3" fill="#6366f1"/>
  <rect x="58" y="88" width="8" height="3" fill="#6366f1"/>
  <rect x="68" y="88" width="8" height="3" fill="#6366f1"/>
  <rect x="48" y="93" width="8" height="3" fill="#6366f1"/>
  <rect x="58" y="93" width="8" height="3" fill="#6366f1"/>
  <rect x="68" y="93" width="8" height="3" fill="#6366f1"/>
  <rect x="48" y="98" width="8" height="3" fill="#6366f1"/>
  <rect x="58" y="98" width="8" height="3" fill="#6366f1"/>
  <rect x="68" y="98" width="8" height="3" fill="#6366f1"/>
</svg>
