<svg width="24" height="24" viewBox="0 0 24 24" xmlns="http://www.w3.org/2000/svg">
  <rect x="2" y="2" width="20" height="20" rx="4" ry="4" fill="#1da1f2"/>
  <path d="M8.5 18.5c6.6 0 10.2-5.5 10.2-10.2 0-0.2 0-0.3 0-0.5 0.7-0.5 1.3-1.1 1.8-1.8-0.6 0.3-1.3 0.5-2 0.6 0.7-0.4 1.2-1.1 1.5-1.9-0.7 0.4-1.4 0.7-2.2 0.9-0.6-0.7-1.5-1.1-2.5-1.1-1.9 0-3.4 1.5-3.4 3.4 0 0.3 0 0.5 0.1 0.8-2.8-0.1-5.3-1.5-7-3.5-0.3 0.5-0.5 1.1-0.5 1.7 0 1.2 0.6 2.2 1.5 2.8-0.6 0-1.1-0.2-1.6-0.4v0c0 1.6 1.1 3 2.6 3.3-0.3 0.1-0.6 0.1-0.9 0.1-0.2 0-0.4 0-0.6-0.1 0.4 1.3 1.6 2.3 3.1 2.3-1.1 0.9-2.5 1.4-4.1 1.4-0.3 0-0.5 0-0.8 0 1.5 1 3.3 1.6 5.2 1.6z" fill="white"/>
</svg>
